<mxfile host="app.diagrams.net" agent="Mozilla/5.0 (Macintosh; Intel Mac OS X 10_15_7) AppleWebKit/605.1.15 (KHTML, like Gecko) Version/17.6 Safari/605.1.15" version="25.0.1">
  <diagram name="Page-1" id="gcOh2L13ghurHqlArtQZ">
    <mxGraphModel dx="956" dy="551" grid="1" gridSize="10" guides="1" tooltips="1" connect="1" arrows="1" fold="1" page="1" pageScale="1" pageWidth="827" pageHeight="1169" background="#ffffff" math="0" shadow="0">
      <root>
        <mxCell id="0" />
        <mxCell id="1" parent="0" />
        <mxCell id="_BFUkzdqi7-qMOlRuGzL-1" value="" style="ellipse;whiteSpace=wrap;html=1;" vertex="1" parent="1">
          <mxGeometry x="630" y="80" width="40" height="40" as="geometry" />
        </mxCell>
        <mxCell id="_BFUkzdqi7-qMOlRuGzL-2" value="Receive a list of integers" style="rounded=1;whiteSpace=wrap;html=1;" vertex="1" parent="1">
          <mxGeometry x="590" y="160" width="120" height="40" as="geometry" />
        </mxCell>
        <mxCell id="_BFUkzdqi7-qMOlRuGzL-3" value="" style="endArrow=classic;html=1;rounded=0;exitX=0.5;exitY=1;exitDx=0;exitDy=0;entryX=0.5;entryY=0;entryDx=0;entryDy=0;" edge="1" parent="1" source="_BFUkzdqi7-qMOlRuGzL-1" target="_BFUkzdqi7-qMOlRuGzL-2">
          <mxGeometry width="50" height="50" relative="1" as="geometry">
            <mxPoint x="434" y="134" as="sourcePoint" />
            <mxPoint x="434" y="174" as="targetPoint" />
          </mxGeometry>
        </mxCell>
        <mxCell id="_BFUkzdqi7-qMOlRuGzL-4" value="Initialise variables:&lt;div&gt;res = 0&lt;/div&gt;&lt;div&gt;i = 0&lt;/div&gt;" style="rounded=1;whiteSpace=wrap;html=1;" vertex="1" parent="1">
          <mxGeometry x="590" y="240" width="120" height="40" as="geometry" />
        </mxCell>
        <mxCell id="_BFUkzdqi7-qMOlRuGzL-5" value="i smaller&lt;div&gt;than&amp;nbsp;&lt;/div&gt;&lt;div&gt;&amp;nbsp;len(list)?&lt;/div&gt;" style="rhombus;whiteSpace=wrap;html=1;fontSize=9;" vertex="1" parent="1">
          <mxGeometry x="616" y="310" width="68" height="60" as="geometry" />
        </mxCell>
        <mxCell id="_BFUkzdqi7-qMOlRuGzL-6" value="" style="endArrow=classic;html=1;rounded=0;exitX=0;exitY=0.5;exitDx=0;exitDy=0;entryX=1;entryY=0.5;entryDx=0;entryDy=0;" edge="1" parent="1" target="_BFUkzdqi7-qMOlRuGzL-8">
          <mxGeometry width="50" height="50" relative="1" as="geometry">
            <mxPoint x="616" y="339.71" as="sourcePoint" />
            <mxPoint x="576" y="339.71" as="targetPoint" />
            <Array as="points" />
          </mxGeometry>
        </mxCell>
        <mxCell id="_BFUkzdqi7-qMOlRuGzL-7" value="No" style="edgeLabel;html=1;align=center;verticalAlign=middle;resizable=0;points=[];" vertex="1" connectable="0" parent="_BFUkzdqi7-qMOlRuGzL-6">
          <mxGeometry x="0.1207" relative="1" as="geometry">
            <mxPoint x="6" as="offset" />
          </mxGeometry>
        </mxCell>
        <mxCell id="_BFUkzdqi7-qMOlRuGzL-8" value="Return the res variable" style="rounded=1;whiteSpace=wrap;html=1;" vertex="1" parent="1">
          <mxGeometry x="448" y="320" width="120" height="40" as="geometry" />
        </mxCell>
        <mxCell id="_BFUkzdqi7-qMOlRuGzL-9" value="" style="ellipse;whiteSpace=wrap;html=1;strokeWidth=3;" vertex="1" parent="1">
          <mxGeometry x="360" y="320" width="40" height="40" as="geometry" />
        </mxCell>
        <mxCell id="_BFUkzdqi7-qMOlRuGzL-10" value="" style="endArrow=classic;html=1;rounded=0;entryX=1;entryY=0.5;entryDx=0;entryDy=0;exitX=0;exitY=0.5;exitDx=0;exitDy=0;" edge="1" parent="1" source="_BFUkzdqi7-qMOlRuGzL-8" target="_BFUkzdqi7-qMOlRuGzL-9">
          <mxGeometry width="50" height="50" relative="1" as="geometry">
            <mxPoint x="560" y="316" as="sourcePoint" />
            <mxPoint x="610" y="266" as="targetPoint" />
          </mxGeometry>
        </mxCell>
        <mxCell id="_BFUkzdqi7-qMOlRuGzL-11" value="" style="endArrow=classic;html=1;rounded=0;entryX=0.5;entryY=0;entryDx=0;entryDy=0;exitX=0.5;exitY=1;exitDx=0;exitDy=0;" edge="1" parent="1" source="_BFUkzdqi7-qMOlRuGzL-2" target="_BFUkzdqi7-qMOlRuGzL-4">
          <mxGeometry width="50" height="50" relative="1" as="geometry">
            <mxPoint x="462" y="354" as="sourcePoint" />
            <mxPoint x="414" y="354" as="targetPoint" />
          </mxGeometry>
        </mxCell>
        <mxCell id="_BFUkzdqi7-qMOlRuGzL-12" value="" style="endArrow=classic;html=1;rounded=0;entryX=0.5;entryY=0;entryDx=0;entryDy=0;exitX=0.5;exitY=1;exitDx=0;exitDy=0;" edge="1" parent="1" source="_BFUkzdqi7-qMOlRuGzL-4" target="_BFUkzdqi7-qMOlRuGzL-5">
          <mxGeometry width="50" height="50" relative="1" as="geometry">
            <mxPoint x="664" y="214" as="sourcePoint" />
            <mxPoint x="664" y="254" as="targetPoint" />
          </mxGeometry>
        </mxCell>
        <mxCell id="_BFUkzdqi7-qMOlRuGzL-13" value="Extract the i-th value from the list in a variable n" style="rounded=1;whiteSpace=wrap;html=1;" vertex="1" parent="1">
          <mxGeometry x="590" y="400" width="120" height="40" as="geometry" />
        </mxCell>
        <mxCell id="_BFUkzdqi7-qMOlRuGzL-14" value="Initialise the variables:&lt;div&gt;digits = []&lt;/div&gt;&lt;div&gt;isNeg = 1&lt;/div&gt;" style="rounded=1;whiteSpace=wrap;html=1;fontSize=10;" vertex="1" parent="1">
          <mxGeometry x="590" y="476" width="120" height="40" as="geometry" />
        </mxCell>
        <mxCell id="_BFUkzdqi7-qMOlRuGzL-16" value="n smaller&lt;div&gt;than 0?&lt;/div&gt;" style="rhombus;whiteSpace=wrap;html=1;fontSize=9;" vertex="1" parent="1">
          <mxGeometry x="616" y="540" width="68" height="60" as="geometry" />
        </mxCell>
        <mxCell id="_BFUkzdqi7-qMOlRuGzL-17" value="Set n equal to the absolute value of itself" style="rounded=1;whiteSpace=wrap;html=1;fontSize=10;" vertex="1" parent="1">
          <mxGeometry x="590" y="640" width="120" height="40" as="geometry" />
        </mxCell>
        <mxCell id="_BFUkzdqi7-qMOlRuGzL-18" value="Set the flag isNeg to -1" style="rounded=1;whiteSpace=wrap;html=1;fontSize=10;" vertex="1" parent="1">
          <mxGeometry x="448" y="550" width="120" height="40" as="geometry" />
        </mxCell>
        <mxCell id="_BFUkzdqi7-qMOlRuGzL-19" value="" style="endArrow=classic;html=1;rounded=0;entryX=0.5;entryY=0;entryDx=0;entryDy=0;exitX=0.5;exitY=1;exitDx=0;exitDy=0;" edge="1" parent="1" source="_BFUkzdqi7-qMOlRuGzL-5" target="_BFUkzdqi7-qMOlRuGzL-13">
          <mxGeometry width="50" height="50" relative="1" as="geometry">
            <mxPoint x="420" y="518" as="sourcePoint" />
            <mxPoint x="442" y="504" as="targetPoint" />
          </mxGeometry>
        </mxCell>
        <mxCell id="_BFUkzdqi7-qMOlRuGzL-22" value="Yes" style="edgeLabel;html=1;align=center;verticalAlign=middle;resizable=0;points=[];" vertex="1" connectable="0" parent="_BFUkzdqi7-qMOlRuGzL-19">
          <mxGeometry x="-0.2857" y="2" relative="1" as="geometry">
            <mxPoint as="offset" />
          </mxGeometry>
        </mxCell>
        <mxCell id="_BFUkzdqi7-qMOlRuGzL-20" value="" style="endArrow=classic;html=1;rounded=0;entryX=0.5;entryY=0;entryDx=0;entryDy=0;exitX=0.5;exitY=1;exitDx=0;exitDy=0;" edge="1" parent="1" source="_BFUkzdqi7-qMOlRuGzL-13" target="_BFUkzdqi7-qMOlRuGzL-14">
          <mxGeometry width="50" height="50" relative="1" as="geometry">
            <mxPoint x="664" y="384" as="sourcePoint" />
            <mxPoint x="664" y="414" as="targetPoint" />
          </mxGeometry>
        </mxCell>
        <mxCell id="_BFUkzdqi7-qMOlRuGzL-21" value="" style="endArrow=classic;html=1;rounded=0;entryX=0.5;entryY=0;entryDx=0;entryDy=0;exitX=0.5;exitY=1;exitDx=0;exitDy=0;" edge="1" parent="1" source="_BFUkzdqi7-qMOlRuGzL-14" target="_BFUkzdqi7-qMOlRuGzL-16">
          <mxGeometry width="50" height="50" relative="1" as="geometry">
            <mxPoint x="664" y="454" as="sourcePoint" />
            <mxPoint x="664" y="490" as="targetPoint" />
          </mxGeometry>
        </mxCell>
        <mxCell id="_BFUkzdqi7-qMOlRuGzL-23" value="" style="endArrow=classic;html=1;rounded=0;entryX=1;entryY=0.5;entryDx=0;entryDy=0;exitX=0;exitY=0.5;exitDx=0;exitDy=0;" edge="1" parent="1" source="_BFUkzdqi7-qMOlRuGzL-16" target="_BFUkzdqi7-qMOlRuGzL-18">
          <mxGeometry width="50" height="50" relative="1" as="geometry">
            <mxPoint x="664" y="454" as="sourcePoint" />
            <mxPoint x="664" y="490" as="targetPoint" />
          </mxGeometry>
        </mxCell>
        <mxCell id="_BFUkzdqi7-qMOlRuGzL-27" value="Yes" style="edgeLabel;html=1;align=center;verticalAlign=middle;resizable=0;points=[];" vertex="1" connectable="0" parent="_BFUkzdqi7-qMOlRuGzL-23">
          <mxGeometry x="-0.0893" relative="1" as="geometry">
            <mxPoint as="offset" />
          </mxGeometry>
        </mxCell>
        <mxCell id="_BFUkzdqi7-qMOlRuGzL-25" value="" style="endArrow=classic;html=1;rounded=0;entryX=0.5;entryY=0;entryDx=0;entryDy=0;exitX=0.5;exitY=1;exitDx=0;exitDy=0;" edge="1" parent="1" source="_BFUkzdqi7-qMOlRuGzL-16" target="_BFUkzdqi7-qMOlRuGzL-17">
          <mxGeometry width="50" height="50" relative="1" as="geometry">
            <mxPoint x="630" y="584" as="sourcePoint" />
            <mxPoint x="582" y="584" as="targetPoint" />
          </mxGeometry>
        </mxCell>
        <mxCell id="_BFUkzdqi7-qMOlRuGzL-28" value="No" style="edgeLabel;html=1;align=center;verticalAlign=middle;resizable=0;points=[];" vertex="1" connectable="0" parent="_BFUkzdqi7-qMOlRuGzL-25">
          <mxGeometry x="-0.3071" y="-2" relative="1" as="geometry">
            <mxPoint as="offset" />
          </mxGeometry>
        </mxCell>
        <mxCell id="_BFUkzdqi7-qMOlRuGzL-26" value="" style="endArrow=classic;html=1;rounded=0;entryX=0;entryY=0.5;entryDx=0;entryDy=0;exitX=0.5;exitY=1;exitDx=0;exitDy=0;" edge="1" parent="1" source="_BFUkzdqi7-qMOlRuGzL-18" target="_BFUkzdqi7-qMOlRuGzL-17">
          <mxGeometry width="50" height="50" relative="1" as="geometry">
            <mxPoint x="630" y="584" as="sourcePoint" />
            <mxPoint x="582" y="584" as="targetPoint" />
            <Array as="points">
              <mxPoint x="508" y="660" />
            </Array>
          </mxGeometry>
        </mxCell>
        <mxCell id="_BFUkzdqi7-qMOlRuGzL-32" style="edgeStyle=orthogonalEdgeStyle;rounded=0;orthogonalLoop=1;jettySize=auto;html=1;exitX=1;exitY=0.5;exitDx=0;exitDy=0;entryX=0;entryY=0.5;entryDx=0;entryDy=0;" edge="1" parent="1" source="_BFUkzdqi7-qMOlRuGzL-29" target="_BFUkzdqi7-qMOlRuGzL-31">
          <mxGeometry relative="1" as="geometry" />
        </mxCell>
        <mxCell id="_BFUkzdqi7-qMOlRuGzL-37" value="Yes" style="edgeLabel;html=1;align=center;verticalAlign=middle;resizable=0;points=[];" vertex="1" connectable="0" parent="_BFUkzdqi7-qMOlRuGzL-32">
          <mxGeometry x="-0.3849" relative="1" as="geometry">
            <mxPoint as="offset" />
          </mxGeometry>
        </mxCell>
        <mxCell id="_BFUkzdqi7-qMOlRuGzL-41" style="edgeStyle=orthogonalEdgeStyle;rounded=0;orthogonalLoop=1;jettySize=auto;html=1;exitX=0;exitY=0.5;exitDx=0;exitDy=0;entryX=1;entryY=0.5;entryDx=0;entryDy=0;" edge="1" parent="1" source="_BFUkzdqi7-qMOlRuGzL-29" target="_BFUkzdqi7-qMOlRuGzL-40">
          <mxGeometry relative="1" as="geometry" />
        </mxCell>
        <mxCell id="_BFUkzdqi7-qMOlRuGzL-42" value="No" style="edgeLabel;html=1;align=center;verticalAlign=middle;resizable=0;points=[];" vertex="1" connectable="0" parent="_BFUkzdqi7-qMOlRuGzL-41">
          <mxGeometry x="-0.2222" relative="1" as="geometry">
            <mxPoint as="offset" />
          </mxGeometry>
        </mxCell>
        <mxCell id="_BFUkzdqi7-qMOlRuGzL-29" value="n greater&lt;div&gt;than 0?&lt;/div&gt;" style="rhombus;whiteSpace=wrap;html=1;fontSize=9;" vertex="1" parent="1">
          <mxGeometry x="616" y="714" width="68" height="66" as="geometry" />
        </mxCell>
        <mxCell id="_BFUkzdqi7-qMOlRuGzL-31" value="Append to the digits list the remainder of n divided by 10 and set n equal the integer division of itself by 10" style="rounded=1;whiteSpace=wrap;html=1;fontSize=10;" vertex="1" parent="1">
          <mxGeometry x="742" y="712" width="120" height="70" as="geometry" />
        </mxCell>
        <mxCell id="_BFUkzdqi7-qMOlRuGzL-36" value="" style="endArrow=classic;html=1;rounded=0;entryX=0.5;entryY=0;entryDx=0;entryDy=0;exitX=0.5;exitY=1;exitDx=0;exitDy=0;" edge="1" parent="1" source="_BFUkzdqi7-qMOlRuGzL-17" target="_BFUkzdqi7-qMOlRuGzL-29">
          <mxGeometry width="50" height="50" relative="1" as="geometry">
            <mxPoint x="522" y="604" as="sourcePoint" />
            <mxPoint x="604" y="674" as="targetPoint" />
            <Array as="points" />
          </mxGeometry>
        </mxCell>
        <mxCell id="_BFUkzdqi7-qMOlRuGzL-38" value="" style="endArrow=classic;html=1;rounded=0;exitX=1;exitY=0.5;exitDx=0;exitDy=0;" edge="1" parent="1" source="_BFUkzdqi7-qMOlRuGzL-31">
          <mxGeometry width="50" height="50" relative="1" as="geometry">
            <mxPoint x="664" y="694" as="sourcePoint" />
            <mxPoint x="650" y="700" as="targetPoint" />
            <Array as="points">
              <mxPoint x="882" y="747" />
              <mxPoint x="882" y="700" />
              <mxPoint x="770" y="700" />
            </Array>
          </mxGeometry>
        </mxCell>
        <mxCell id="_BFUkzdqi7-qMOlRuGzL-46" style="edgeStyle=orthogonalEdgeStyle;rounded=0;orthogonalLoop=1;jettySize=auto;html=1;exitX=0.5;exitY=1;exitDx=0;exitDy=0;entryX=0.5;entryY=0;entryDx=0;entryDy=0;" edge="1" parent="1" source="_BFUkzdqi7-qMOlRuGzL-40" target="_BFUkzdqi7-qMOlRuGzL-43">
          <mxGeometry relative="1" as="geometry" />
        </mxCell>
        <mxCell id="_BFUkzdqi7-qMOlRuGzL-40" value="Set the last element of the list digits to itself multiply by the flag isNeg" style="rounded=1;whiteSpace=wrap;html=1;fontSize=10;" vertex="1" parent="1">
          <mxGeometry x="448" y="727" width="120" height="40" as="geometry" />
        </mxCell>
        <mxCell id="_BFUkzdqi7-qMOlRuGzL-47" style="edgeStyle=orthogonalEdgeStyle;rounded=0;orthogonalLoop=1;jettySize=auto;html=1;exitX=0.5;exitY=1;exitDx=0;exitDy=0;entryX=0.5;entryY=0;entryDx=0;entryDy=0;" edge="1" parent="1" source="_BFUkzdqi7-qMOlRuGzL-43" target="_BFUkzdqi7-qMOlRuGzL-44">
          <mxGeometry relative="1" as="geometry" />
        </mxCell>
        <mxCell id="_BFUkzdqi7-qMOlRuGzL-51" value="Yes" style="edgeLabel;html=1;align=center;verticalAlign=middle;resizable=0;points=[];" vertex="1" connectable="0" parent="_BFUkzdqi7-qMOlRuGzL-47">
          <mxGeometry x="-0.549" y="1" relative="1" as="geometry">
            <mxPoint as="offset" />
          </mxGeometry>
        </mxCell>
        <mxCell id="_BFUkzdqi7-qMOlRuGzL-48" style="edgeStyle=orthogonalEdgeStyle;rounded=0;orthogonalLoop=1;jettySize=auto;html=1;exitX=1;exitY=0.5;exitDx=0;exitDy=0;entryX=0.5;entryY=0;entryDx=0;entryDy=0;" edge="1" parent="1" source="_BFUkzdqi7-qMOlRuGzL-43" target="_BFUkzdqi7-qMOlRuGzL-45">
          <mxGeometry relative="1" as="geometry" />
        </mxCell>
        <mxCell id="_BFUkzdqi7-qMOlRuGzL-50" value="No" style="edgeLabel;html=1;align=center;verticalAlign=middle;resizable=0;points=[];" vertex="1" connectable="0" parent="_BFUkzdqi7-qMOlRuGzL-48">
          <mxGeometry x="-0.6086" y="-1" relative="1" as="geometry">
            <mxPoint as="offset" />
          </mxGeometry>
        </mxCell>
        <mxCell id="_BFUkzdqi7-qMOlRuGzL-43" value="Sum of&amp;nbsp;&lt;div&gt;digits greater than 0?&lt;/div&gt;" style="rhombus;whiteSpace=wrap;html=1;fontSize=9;" vertex="1" parent="1">
          <mxGeometry x="474" y="800" width="68" height="66" as="geometry" />
        </mxCell>
        <mxCell id="_BFUkzdqi7-qMOlRuGzL-49" style="edgeStyle=orthogonalEdgeStyle;rounded=0;orthogonalLoop=1;jettySize=auto;html=1;exitX=1;exitY=0.5;exitDx=0;exitDy=0;entryX=0;entryY=0.5;entryDx=0;entryDy=0;" edge="1" parent="1" source="_BFUkzdqi7-qMOlRuGzL-44" target="_BFUkzdqi7-qMOlRuGzL-45">
          <mxGeometry relative="1" as="geometry" />
        </mxCell>
        <mxCell id="_BFUkzdqi7-qMOlRuGzL-44" value="Increase res by 1" style="rounded=1;whiteSpace=wrap;html=1;fontSize=10;" vertex="1" parent="1">
          <mxGeometry x="448" y="900" width="120" height="40" as="geometry" />
        </mxCell>
        <mxCell id="_BFUkzdqi7-qMOlRuGzL-52" style="edgeStyle=orthogonalEdgeStyle;rounded=0;orthogonalLoop=1;jettySize=auto;html=1;exitX=1;exitY=0.5;exitDx=0;exitDy=0;" edge="1" parent="1" source="_BFUkzdqi7-qMOlRuGzL-45">
          <mxGeometry relative="1" as="geometry">
            <mxPoint x="650" y="290" as="targetPoint" />
            <Array as="points">
              <mxPoint x="910" y="920" />
            </Array>
          </mxGeometry>
        </mxCell>
        <mxCell id="_BFUkzdqi7-qMOlRuGzL-45" value="Increase i by 1" style="rounded=1;whiteSpace=wrap;html=1;fontSize=10;" vertex="1" parent="1">
          <mxGeometry x="616" y="900" width="120" height="40" as="geometry" />
        </mxCell>
      </root>
    </mxGraphModel>
  </diagram>
</mxfile>